<?xml version="1.0" encoding="utf-8"?>
<!-- Generator: Adobe Illustrator 24.1.2, SVG Export Plug-In . SVG Version: 6.00 Build 0)  -->
<svg version="1.1" id="Layer_1" xmlns="http://www.w3.org/2000/svg" xmlns:xlink="http://www.w3.org/1999/xlink" x="0px" y="0px"
	 viewBox="0 0 50 50" style="enable-background:new 0 0 50 50;" xml:space="preserve">
<style type="text/css">
	.st0{fill:#FFFFFF;}
	.st1{fill:#4374BA;}
</style>
<g>
	<path class="st0" d="M5.2,13.77c-0.78,0-1.42-0.64-1.42-1.42V7.99c0-0.78,0.64-1.42,1.42-1.42h39.24c0.78,0,1.42,0.64,1.42,1.42
		v4.36c0,0.78-0.64,1.42-1.42,1.42H5.2z"/>
	<path class="st1" d="M44.44,6.82c0.65,0,1.17,0.52,1.17,1.17v4.36c0,0.65-0.52,1.17-1.17,1.17H5.2c-0.65,0-1.17-0.52-1.17-1.17
		V7.99c0-0.65,0.52-1.17,1.17-1.17H44.44 M44.44,6.32H5.2c-0.92,0-1.67,0.75-1.67,1.67v4.36c0,0.92,0.75,1.67,1.67,1.67h39.24
		c0.92,0,1.67-0.75,1.67-1.67V7.99C46.11,7.07,45.36,6.32,44.44,6.32L44.44,6.32z"/>
</g>
<g>
	<path class="st0" d="M5.2,28.7c-0.78,0-1.42-0.64-1.42-1.42v-4.36c0-0.78,0.64-1.42,1.42-1.42h39.24c0.78,0,1.42,0.64,1.42,1.42
		v4.36c0,0.78-0.64,1.42-1.42,1.42H5.2z"/>
	<path class="st1" d="M44.44,21.75c0.65,0,1.17,0.52,1.17,1.17v4.36c0,0.65-0.52,1.17-1.17,1.17H5.2c-0.65,0-1.17-0.52-1.17-1.17
		v-4.36c0-0.65,0.52-1.17,1.17-1.17H44.44 M44.44,21.25H5.2c-0.92,0-1.67,0.75-1.67,1.67v4.36c0,0.92,0.75,1.67,1.67,1.67h39.24
		c0.92,0,1.67-0.75,1.67-1.67v-4.36C46.11,22,45.36,21.25,44.44,21.25L44.44,21.25z"/>
</g>
<g>
	<path class="st0" d="M5.2,43.63c-0.78,0-1.42-0.64-1.42-1.42v-4.36c0-0.78,0.64-1.42,1.42-1.42h39.24c0.78,0,1.42,0.64,1.42,1.42
		v4.36c0,0.78-0.64,1.42-1.42,1.42H5.2z"/>
	<path class="st1" d="M44.44,36.68c0.65,0,1.17,0.52,1.17,1.17v4.36c0,0.65-0.52,1.17-1.17,1.17H5.2c-0.65,0-1.17-0.52-1.17-1.17
		v-4.36c0-0.65,0.52-1.17,1.17-1.17H44.44 M44.44,36.18H5.2c-0.92,0-1.67,0.75-1.67,1.67v4.36c0,0.92,0.75,1.67,1.67,1.67h39.24
		c0.92,0,1.67-0.75,1.67-1.67v-4.36C46.11,36.93,45.36,36.18,44.44,36.18L44.44,36.18z"/>
</g>
</svg>
