<?xml version="1.0" encoding="utf-8"?>
<!-- Generator: Adobe Illustrator 24.2.1, SVG Export Plug-In . SVG Version: 6.00 Build 0)  -->
<svg version="1.1" id="Layer_1" xmlns="http://www.w3.org/2000/svg" xmlns:xlink="http://www.w3.org/1999/xlink" x="0px" y="0px"
	 viewBox="0 0 900 400" style="enable-background:new 0 0 900 400;" xml:space="preserve">
<style type="text/css">
	.st0{fill:#010101;}
	.st1{font-family:'Abel-Regular';}
	.st2{font-size:4.6295px;}
	.st3{fill:#C74579;}
	.st4{fill:#FFFFFF;}
</style>
<g>
	<text transform="matrix(1 0 0 1 73.8624 85.3663)" class="st0 st1 st2">ENTER</text>
</g>
<g>
	<text transform="matrix(1 0 0 1 180.9137 90.0753)" class="st0 st1 st2">Sign Up</text>
</g>
<g>
	<text transform="matrix(1 0 0 1 181.6334 173.2999)" class="st0 st1 st2">Sign In</text>
</g>
<g>
	<text transform="matrix(1 0 0 1 386.1363 47.8546)" class="st0 st1 st2">Create a group</text>
</g>
<g>
	<text transform="matrix(1 0 0 1 480.6964 47.8546)" class="st0 st1 st2">Invite members</text>
</g>
<g>
	<text transform="matrix(1 0 0 1 388.3077 125.7853)" class="st0 st1 st2">Join a group</text>
</g>
<g>
	<text transform="matrix(1 0 0 1 441.8927 245.4991)" class="st0 st1 st2">Trade</text>
</g>
<g>
	<text transform="matrix(1 0 0 1 706.3682 200.5948)"><tspan x="0" y="0" class="st0 st1 st2">snacker</tspan><tspan x="-0.16" y="4.63" class="st0 st1 st2">Accepts</tspan></text>
</g>
<g>
	<text transform="matrix(1 0 0 1 839.9073 202.9083)" class="st0 st1 st2">Exchange</text>
</g>
<g>
	<text transform="matrix(1 0 0 1 705.6964 287.2003)"><tspan x="0" y="0" class="st0 st1 st2">Snacker </tspan><tspan x="0.11" y="4.63" class="st0 st1 st2">Declines</tspan></text>
</g>
<g>
	<text transform="matrix(1 0 0 1 577.9966 242.215)"><tspan x="0" y="0" class="st0 st1 st2">select a snaker,</tspan><tspan x="0.94" y="4.63" class="st0 st1 st2">enter what you</tspan><tspan x="3.53" y="9.26" class="st0 st1 st2"> are offaring</tspan></text>
</g>
<g>
	<text transform="matrix(1 0 0 1 766.4854 343.3155)"><tspan x="0" y="0" class="st0 st1 st2">offer a different </tspan><tspan x="8.99" y="4.63" class="st0 st1 st2">snack</tspan></text>
</g>
<g>
	<text transform="matrix(1 0 0 1 775.7081 198.2794)"><tspan x="0" y="0" class="st0 st1 st2">set a </tspan><tspan x="-2.66" y="4.63" class="st0 st1 st2">meeting </tspan><tspan x="0.32" y="9.26" class="st0 st1 st2">place</tspan></text>
</g>
<g>
	<text transform="matrix(1 0 0 1 580.8746 173.5812)" class="st0 st1 st2">List a snack</text>
</g>
<g>
	<text transform="matrix(1 0 0 1 69.7169 132.0177)" class="st0 st1 st2">Onboarding</text>
</g>
<g>
	<text transform="matrix(1 0 0 1 435.9903 170.1993)"><tspan x="0" y="0" class="st0 st1 st2">List a snack</tspan><tspan x="9.02" y="4.63" class="st0 st1 st2">or</tspan><tspan x="5.58" y="9.26" class="st0 st1 st2">trade </tspan></text>
</g>
<g>
	<text transform="matrix(1 0 0 1 768.2393 286.0343)"><tspan x="0" y="0" class="st0 st1 st2">Offer a diffrent</tspan><tspan x="-2.55" y="4.63" class="st0 st1 st2">snack or abendon</tspan></text>
</g>
<g>
	<text transform="matrix(1 0 0 1 581.8511 42.0616)"><tspan x="0" y="0" class="st0 st1 st2">Share code</tspan><tspan x="8.04" y="4.63" class="st0 st1 st2">or</tspan><tspan x="-2.79" y="9.26" class="st0 st1 st2">enter an email</tspan></text>
</g>
<rect x="215.01" y="171.36" class="st3" width="208.41" height="1.16"/>
<path class="st3" d="M107.57,94.09H51.92V71.37h55.66V94.09z M53.07,92.93h53.34v-20.4H53.07V92.93z"/>
<path class="st3" d="M215.37,98.79h-55.66V76.08h55.66V98.79z M160.88,97.64h53.34v-20.4h-53.34V97.64z"/>
<path class="st3" d="M215.37,183.3h-55.66v-22.72h55.66V183.3z M160.88,182.14h53.34v-20.4h-53.34V182.14z"/>
<g>
	<rect x="251.77" y="161.16" class="st4" width="54.5" height="21.56"/>
	<path class="st3" d="M306.85,183.3h-55.66v-22.72h55.66V183.3z M252.35,182.14h53.34v-20.4h-53.34V182.14z"/>
</g>
<path class="st3" d="M426.78,56.81h-55.66V34.09h55.66V56.81z M372.28,55.65h53.34v-20.4h-53.34V55.65z"/>
<path class="st3" d="M522.08,56.81h-55.66V34.09h55.66V56.81z M467.58,55.65h53.34v-20.4h-53.34V55.65z"/>
<path class="st3" d="M426.78,135.78h-55.66v-22.72h55.66V135.78z M372.28,134.63h53.34v-20.4h-53.34V134.63z"/>
<path class="st3" d="M474.55,255.5h-55.66v-22.72h55.66V255.5z M420.05,254.34h53.34v-20.4h-53.34V254.34z"/>
<path class="st3" d="M741.18,212.91h-55.66v-22.72h55.66V212.91z M686.68,211.75h53.34v-20.4h-53.34V211.75z"/>
<path class="st3" d="M741.18,298.59h-55.66v-22.72h55.66V298.59z M686.68,297.43h53.34v-20.4h-53.34V297.43z"/>
<path class="st3" d="M79.74,154.24l-24.66-24.66l24.66-24.66l24.66,24.66L79.74,154.24z M56.72,129.58l23.03,23.03l23.03-23.03
	l-23.03-23.03L56.72,129.58z"/>
<polygon class="st3" points="136.66,130.16 103.59,130.16 103.59,129 135.5,129 135.5,86.72 160.54,86.72 160.54,87.87 
	136.66,87.87 "/>
<polygon class="st3" points="160.54,172.38 135.5,172.38 135.5,130.1 103.59,130.1 103.59,128.95 136.66,128.95 136.66,171.23 
	160.54,171.23 "/>
<polygon class="st3" points="669.87,244.54 614.47,244.54 614.47,243.38 668.71,243.38 668.71,201.1 685.75,201.1 685.75,202.25 
	669.87,202.25 "/>
<polygon class="st3" points="685.75,286.76 668.71,286.76 668.71,244.48 612.16,244.48 612.16,243.33 669.87,243.33 669.87,285.61 
	685.75,285.61 "/>
<polygon class="st3" points="347.98,87.82 305.14,87.82 305.14,86.66 346.82,86.66 346.82,44.84 371.67,44.84 371.67,46 347.98,46 
	"/>
<polygon class="st3" points="371.67,125.14 346.82,125.14 346.82,88.07 304.91,88.07 304.91,86.92 347.98,86.92 347.98,123.98 
	371.67,123.98 "/>
<rect x="79.17" y="93.26" class="st3" width="1.16" height="12.47"/>
<path class="st3" d="M446.72,196.76l-24.66-24.66l24.66-24.66l24.66,24.66L446.72,196.76z M423.69,172.09l23.03,23.03l23.03-23.03
	l-23.03-23.03L423.69,172.09z"/>
<path class="st3" d="M780.68,310.97l-24.66-24.66l24.66-24.66l24.66,24.66L780.68,310.97z M757.66,286.31l23.03,23.03l23.03-23.03
	l-23.03-23.03L757.66,286.31z"/>
<path class="st3" d="M591.61,69.57L566.94,44.9l24.66-24.66l24.66,24.66L591.61,69.57z M568.58,44.9l23.03,23.03l23.03-23.03
	l-23.03-23.03L568.58,44.9z"/>
<path class="st3" d="M780.74,365.17c-11.52,0-20.9-9.38-20.9-20.9c0-11.52,9.38-20.9,20.9-20.9c11.52,0,20.9,9.38,20.9,20.9
	C801.64,355.79,792.26,365.17,780.74,365.17z M780.74,324.53c-10.89,0-19.74,8.86-19.74,19.74c0,10.89,8.86,19.74,19.74,19.74
	s19.74-8.86,19.74-19.74C800.48,333.38,791.63,324.53,780.74,324.53z"/>
<path class="st3" d="M848.04,222.45c-11.52,0-20.9-9.38-20.9-20.9c0-11.52,9.38-20.9,20.9-20.9c11.52,0,20.9,9.38,20.9,20.9
	C868.94,213.07,859.56,222.45,848.04,222.45z M848.04,181.81c-10.89,0-19.74,8.86-19.74,19.74c0,10.89,8.86,19.74,19.74,19.74
	c10.89,0,19.74-8.86,19.74-19.74C867.78,190.66,858.92,181.81,848.04,181.81z"/>
<path class="st3" d="M780.74,222.45c-11.52,0-20.9-9.38-20.9-20.9c0-11.52,9.38-20.9,20.9-20.9c11.52,0,20.9,9.38,20.9,20.9
	C801.64,213.07,792.26,222.45,780.74,222.45z M780.74,181.81c-10.89,0-19.74,8.86-19.74,19.74c0,10.89,8.86,19.74,19.74,19.74
	s19.74-8.86,19.74-19.74C800.48,190.66,791.63,181.81,780.74,181.81z"/>
<path class="st3" d="M591.61,265.04c-11.52,0-20.9-9.38-20.9-20.9c0-11.52,9.38-20.9,20.9-20.9s20.9,9.38,20.9,20.9
	C612.51,255.66,603.13,265.04,591.61,265.04z M591.61,224.4c-10.89,0-19.74,8.86-19.74,19.74s8.86,19.74,19.74,19.74
	s19.74-8.86,19.74-19.74S602.49,224.4,591.61,224.4z"/>
<path class="st3" d="M591.61,193.12c-11.52,0-20.9-9.38-20.9-20.9c0-11.52,9.38-20.9,20.9-20.9s20.9,9.38,20.9,20.9
	C612.51,183.75,603.13,193.12,591.61,193.12z M591.61,152.48c-10.89,0-19.74,8.86-19.74,19.74c0,10.89,8.86,19.74,19.74,19.74
	s19.74-8.86,19.74-19.74C611.35,161.34,602.49,152.48,591.61,152.48z"/>
<polygon class="st3" points="781.32,384.42 591.8,384.42 591.8,264.83 592.95,264.83 592.95,383.27 780.16,383.27 780.16,364.59 
	781.32,364.59 "/>
<rect x="740.87" y="285.66" class="st3" width="15.97" height="1.16"/>
<rect x="780.11" y="310.15" class="st3" width="1.16" height="13.8"/>
<rect x="740.22" y="200.97" class="st3" width="19.86" height="1.16"/>
<rect x="800.72" y="200.97" class="st3" width="26.65" height="1.16"/>
<polygon class="st3" points="447.26,148.24 446.1,148.24 446.1,125 426.32,125 426.32,123.85 447.26,123.85 "/>
<rect x="470.59" y="171.51" class="st3" width="100.76" height="1.16"/>
<rect x="474.04" y="243.56" class="st3" width="97.55" height="1.16"/>
<rect x="426.34" y="45.31" class="st3" width="40.39" height="1.16"/>
<rect x="521.62" y="44.39" class="st3" width="45.89" height="1.16"/>
<polygon class="st3" points="281.78,161.15 280.62,161.15 280.62,87.76 214.99,87.76 214.99,86.6 281.78,86.6 "/>
<rect x="446.14" y="195.94" class="st3" width="1.16" height="37.49"/>
<g>
	<text transform="matrix(1 0 0 1 269.7242 173.2999)" class="st0 st1 st2">Dashboard</text>
</g>
<g>
	
		<rect x="264.22" y="70.33" transform="matrix(0.7071 -0.7071 0.7071 0.7071 20.6743 224.2891)" class="st4" width="33.72" height="33.72"/>
	<path class="st3" d="M281.08,111.85l-24.66-24.66l24.66-24.66l24.66,24.66L281.08,111.85z M258.05,87.19l23.03,23.03l23.03-23.03
		l-23.03-23.03L258.05,87.19z"/>
</g>
<g>
	<text transform="matrix(1 0 0 1 273.5406 79.2892)"><tspan x="0" y="0" class="st0 st1 st2">Create a </tspan><tspan x="2.55" y="4.63" class="st0 st1 st2">group </tspan><tspan x="5.7" y="9.26" class="st0 st1 st2">or </tspan><tspan x="4.3" y="13.89" class="st0 st1 st2">join </tspan><tspan x="-0.12" y="18.52" class="st0 st1 st2">excisting</tspan></text>
</g>
</svg>
