<?xml version="1.0" encoding="utf-8"?>
<!-- Generator: Adobe Illustrator 24.2.1, SVG Export Plug-In . SVG Version: 6.00 Build 0)  -->
<svg version="1.1" id="Layer_1" xmlns="http://www.w3.org/2000/svg" xmlns:xlink="http://www.w3.org/1999/xlink" x="0px" y="0px"
	 viewBox="0 0 900 400" style="enable-background:new 0 0 900 400;" xml:space="preserve">
<style type="text/css">
	.st0{fill:#C5437A;}
	.st1{fill:#FFFFFF;}
	.st2{fill:#C74579;}
	.st3{fill:#DF6A3E;}
	.st4{font-family:'Abel-Regular';}
	.st5{font-size:14.8969px;}
	.st6{fill:#C64479;}
	.st7{fill:none;stroke:#C5437A;stroke-linecap:round;stroke-miterlimit:10;}
</style>
<path class="st0" d="M297.25,259.06v-36.85c0-0.26-0.21-0.47-0.47-0.47s-0.47,0.21-0.47,0.47v36.85c-0.96,0.21-1.68,1.07-1.68,2.09
	c0,1.18,0.96,2.15,2.15,2.15c1.18,0,2.15-0.96,2.15-2.15C298.93,260.12,298.21,259.27,297.25,259.06z"/>
<g>
	<g>
		<path class="st1" d="M505.7,328.67H405.11c-1.34,0-2.42-1.08-2.42-2.42v-23.24c0-1.34,1.08-2.42,2.42-2.42H505.7
			c1.34,0,2.42,1.08,2.42,2.42v23.24C508.12,327.59,507.03,328.67,505.7,328.67z"/>
		<path class="st2" d="M507.54,329.27H403.27c-0.65,0-1.18-0.53-1.18-1.18v-26.92c0-0.65,0.53-1.18,1.18-1.18h104.27
			c0.65,0,1.18,0.53,1.18,1.18v26.92C508.72,328.74,508.19,329.27,507.54,329.27z M403.29,328.08h104.23V301.2H403.29V328.08z"/>
	</g>
	<text transform="matrix(1 0 0 1 440.0859 318.7715)" class="st3 st4 st5">Trade</text>
</g>
<path class="st0" d="M679.47,346.9v31.15c0,0.18,0.21,0.33,0.47,0.33s0.47-0.15,0.47-0.33V346.9c0.96-0.15,1.68-0.75,1.68-1.47
	c0-0.83-0.96-1.51-2.15-1.51c-1.18,0-2.15,0.68-2.15,1.51C677.79,346.15,678.51,346.75,679.47,346.9z"/>
<g>
	<g>
		<path class="st1" d="M862.8,308.37H762.21c-1.34,0-2.42-1.08-2.42-2.42v-23.24c0-1.34,1.08-2.42,2.42-2.42H862.8
			c1.34,0,2.42,1.08,2.42,2.42v23.24C865.22,307.29,864.14,308.37,862.8,308.37z"/>
		<path class="st2" d="M864.64,308.97H760.37c-0.65,0-1.18-0.53-1.18-1.18v-26.92c0-0.65,0.53-1.18,1.18-1.18h104.27
			c0.65,0,1.18,0.53,1.18,1.18v26.92C865.82,308.44,865.29,308.97,864.64,308.97z M760.39,307.77h104.23v-26.88H760.39V307.77z"/>
	</g>
	<text transform="matrix(1 0 0 1 797.1895 298.4688)" class="st3 st4 st5">Meet</text>
</g>
<path class="st0" d="M757.19,294.05h-36.85c-0.26,0-0.47,0.21-0.47,0.47c0,0.26,0.21,0.47,0.47,0.47h36.85
	c0.21,0.96,1.07,1.68,2.09,1.68c1.18,0,2.15-0.96,2.15-2.15c0-1.18-0.96-2.15-2.15-2.15C758.26,292.37,757.4,293.09,757.19,294.05z"
	/>
<path class="st0" d="M613.51,313.76h-105.1c-0.26,0-0.47,0.21-0.47,0.47s0.21,0.47,0.47,0.47h105.1c0.21,0.96,1.07,1.68,2.09,1.68
	c1.18,0,2.15-0.96,2.15-2.15c0-1.18-0.96-2.15-2.15-2.15C614.58,312.08,613.73,312.8,613.51,313.76z"/>
<g>
	<g>
		<path class="st1" d="M732.27,309.54H631.68c-1.34,0-2.42-1.08-2.42-2.42v-23.24c0-1.34,1.08-2.42,2.42-2.42h100.59
			c1.34,0,2.42,1.08,2.42,2.42v23.24C734.69,308.46,733.6,309.54,732.27,309.54z"/>
		<path class="st2" d="M734.11,310.14H629.84c-0.65,0-1.18-0.53-1.18-1.18v-26.92c0-0.65,0.53-1.18,1.18-1.18h104.27
			c0.65,0,1.18,0.53,1.18,1.18v26.92C735.29,309.61,734.76,310.14,734.11,310.14z M629.86,308.94h104.23v-26.88H629.86V308.94z"/>
	</g>
	<text transform="matrix(1 0 0 1 663.0332 299.6387)" class="st3 st4 st5">Accept</text>
</g>
<g>
	<g>
		<path class="st1" d="M732.27,348.96H631.68c-1.34,0-2.42-1.08-2.42-2.42v-23.24c0-1.34,1.08-2.42,2.42-2.42h100.59
			c1.34,0,2.42,1.08,2.42,2.42v23.24C734.69,347.88,733.6,348.96,732.27,348.96z"/>
		<path class="st2" d="M734.11,349.56H629.84c-0.65,0-1.18-0.53-1.18-1.18v-26.92c0-0.65,0.53-1.18,1.18-1.18h104.27
			c0.65,0,1.18,0.53,1.18,1.18v26.92C735.29,349.03,734.76,349.56,734.11,349.56z M629.86,348.36h104.23v-26.88H629.86V348.36z"/>
	</g>
	<text transform="matrix(1 0 0 1 657.457 339.0605)" class="st3 st4 st5">Decline</text>
</g>
<path class="st0" d="M626.98,295.69h-10.82c-0.26,0-0.47,0.21-0.47,0.47s0.21,0.47,0.47,0.47h10.82c0.21,0.96,1.07,1.68,2.09,1.68
	c1.18,0,2.15-0.96,2.15-2.15c0-1.18-0.96-2.15-2.15-2.15C628.05,294.01,627.2,294.73,626.98,295.69z"/>
<path class="st0" d="M626.98,334.46h-10.82c-0.26,0-0.47,0.21-0.47,0.47s0.21,0.47,0.47,0.47h10.82c0.21,0.96,1.07,1.68,2.09,1.68
	c1.18,0,2.15-0.96,2.15-2.15c0-1.18-0.96-2.15-2.15-2.15C628.05,332.78,627.2,333.5,626.98,334.46z"/>
<g>
	<g>
		<path class="st1" d="M863.11,112.64H762.52c-1.34,0-2.42-1.08-2.42-2.42V86.99c0-1.34,1.08-2.42,2.42-2.42h100.59
			c1.34,0,2.42,1.08,2.42,2.42v23.24C865.53,111.56,864.45,112.64,863.11,112.64z"/>
		<path class="st2" d="M864.95,113.24H760.68c-0.65,0-1.18-0.53-1.18-1.18V85.15c0-0.65,0.53-1.18,1.18-1.18h104.27
			c0.65,0,1.18,0.53,1.18,1.18v26.92C866.13,112.71,865.6,113.24,864.95,113.24z M760.7,112.04h104.23V85.17H760.7V112.04z"/>
	</g>
	<text transform="matrix(1 0 0 1 776.998 102.7407)" class="st3 st4 st5">Group Name</text>
</g>
<path class="st6" d="M758.21,97.69h-36.85c-0.26,0-0.47,0.21-0.47,0.47s0.21,0.47,0.47,0.47h36.85c0.21,0.96,1.07,1.68,2.09,1.68
	c1.18,0,2.15-0.96,2.15-2.15c0-1.18-0.96-2.15-2.15-2.15C759.28,96.01,758.42,96.73,758.21,97.69z"/>
<g>
	<g>
		<path class="st1" d="M733.46,112.64H632.87c-1.34,0-2.42-1.08-2.42-2.42V86.99c0-1.34,1.08-2.42,2.42-2.42h100.59
			c1.34,0,2.42,1.08,2.42,2.42v23.24C735.87,111.56,734.79,112.64,733.46,112.64z"/>
		<path class="st2" d="M735.3,113.24H631.03c-0.65,0-1.18-0.53-1.18-1.18V85.15c0-0.65,0.53-1.18,1.18-1.18H735.3
			c0.65,0,1.18,0.53,1.18,1.18v26.92C736.47,112.71,735.94,113.24,735.3,113.24z M631.05,112.04h104.23V85.17H631.05V112.04z"/>
	</g>
	<text transform="matrix(1 0 0 1 667.3555 102.7407)" class="st3 st4 st5">Email</text>
</g>
<path class="st6" d="M628.55,97.69H591.7c-0.26,0-0.47,0.21-0.47,0.47s0.21,0.47,0.47,0.47h36.85c0.21,0.96,1.07,1.68,2.09,1.68
	c1.18,0,2.15-0.96,2.15-2.15c0-1.18-0.96-2.15-2.15-2.15C629.62,96.01,628.76,96.73,628.55,97.69z"/>
<g>
	<g>
		<path class="st1" d="M604.23,112.64H503.64c-1.34,0-2.42-1.08-2.42-2.42V86.99c0-1.34,1.08-2.42,2.42-2.42h100.59
			c1.34,0,2.42,1.08,2.42,2.42v23.24C606.64,111.56,605.56,112.64,604.23,112.64z"/>
		<path class="st2" d="M606.07,113.24H501.8c-0.65,0-1.18-0.53-1.18-1.18V85.15c0-0.65,0.53-1.18,1.18-1.18h104.27
			c0.65,0,1.18,0.53,1.18,1.18v26.92C607.24,112.71,606.71,113.24,606.07,113.24z M501.82,112.04h104.23V85.17H501.82V112.04z"/>
	</g>
	<text transform="matrix(1 0 0 1 537.8379 102.7417)" class="st3 st4 st5">Name</text>
</g>
<g>
	<g>
		<path class="st1" d="M258.81,328.67H158.22c-1.34,0-2.42-1.08-2.42-2.42v-23.24c0-1.34,1.08-2.42,2.42-2.42h100.59
			c1.34,0,2.42,1.08,2.42,2.42v23.24C261.23,327.59,260.15,328.67,258.81,328.67z"/>
		<path class="st2" d="M260.65,329.27H156.38c-0.65,0-1.18-0.53-1.18-1.18v-26.92c0-0.65,0.53-1.18,1.18-1.18h104.27
			c0.65,0,1.18,0.53,1.18,1.18v26.92C261.83,328.74,261.3,329.27,260.65,329.27z M156.4,328.08h104.23V301.2H156.4V328.08z"/>
	</g>
	<text transform="matrix(1 0 0 1 186.875 318.7715)" class="st3 st4 st5">+Snack</text>
</g>
<g>
	<g>
		<path class="st1" d="M348.86,233.58H248.28c-1.34,0-2.42-1.08-2.42-2.42v-23.24c0-1.34,1.08-2.42,2.42-2.42h100.59
			c1.34,0,2.42,1.08,2.42,2.42v23.24C351.28,232.5,350.2,233.58,348.86,233.58z"/>
		<path class="st2" d="M350.7,234.18H246.44c-0.65,0-1.18-0.53-1.18-1.18v-26.92c0-0.65,0.53-1.18,1.18-1.18H350.7
			c0.65,0,1.18,0.53,1.18,1.18V233C351.88,233.65,351.35,234.18,350.7,234.18z M246.46,232.98h104.23v-26.88H246.46V232.98z"/>
	</g>
	<text transform="matrix(1 0 0 1 283.084 223.6787)" class="st3 st4 st5">Menu</text>
</g>
<g>
	<g>
		<path class="st1" d="M383.93,328.67H283.34c-1.34,0-2.42-1.08-2.42-2.42v-23.24c0-1.34,1.08-2.42,2.42-2.42h100.59
			c1.34,0,2.42,1.08,2.42,2.42v23.24C386.35,327.59,385.27,328.67,383.93,328.67z"/>
		<path class="st2" d="M385.77,329.27H281.5c-0.65,0-1.18-0.53-1.18-1.18v-26.92c0-0.65,0.53-1.18,1.18-1.18h104.27
			c0.65,0,1.18,0.53,1.18,1.18v26.92C386.95,328.74,386.42,329.27,385.77,329.27z M281.52,328.08h104.23V301.2H281.52V328.08z"/>
	</g>
	<text transform="matrix(1 0 0 1 309.7832 318.7715)" class="st3 st4 st5">+Member</text>
</g>
<g>
	<g>
		<path class="st1" d="M133.69,328.67H33.1c-1.34,0-2.42-1.08-2.42-2.42v-23.24c0-1.34,1.08-2.42,2.42-2.42h100.59
			c1.34,0,2.42,1.08,2.42,2.42v23.24C136.11,327.59,135.03,328.67,133.69,328.67z"/>
		<path class="st2" d="M135.53,329.27H31.26c-0.65,0-1.18-0.53-1.18-1.18v-26.92c0-0.65,0.53-1.18,1.18-1.18h104.27
			c0.65,0,1.18,0.53,1.18,1.18v26.92C136.71,328.74,136.18,329.27,135.53,329.27z M31.28,328.08h104.23V301.2H31.28V328.08z"/>
	</g>
	<text transform="matrix(1 0 0 1 62.8135 318.7715)" class="st3 st4 st5">+Group</text>
</g>
<path class="st0" d="M338.82,298.31v-36.85c0-0.26-0.21-0.47-0.47-0.47c-0.26,0-0.47,0.21-0.47,0.47v36.85
	c-0.96,0.21-1.68,1.07-1.68,2.09c0,1.18,0.96,2.15,2.15,2.15c1.18,0,2.15-0.96,2.15-2.15C340.5,299.38,339.78,298.52,338.82,298.31z
	"/>
<path class="st0" d="M454.94,331.05v41.13c0,0.26,0.21,0.47,0.47,0.47c0.26,0,0.47-0.21,0.47-0.47v-41.13
	c0.96-0.21,1.68-1.07,1.68-2.09c0-1.18-0.96-2.15-2.15-2.15c-1.18,0-2.15,0.96-2.15,2.15C453.26,329.99,453.98,330.84,454.94,331.05
	z"/>
<path class="st0" d="M456.57,298.21v-36.82c0-0.26-0.21-0.47-0.47-0.47c-0.26,0-0.47,0.21-0.47,0.47v36.82
	c-0.96,0.21-1.68,1.07-1.68,2.09c0,1.18,0.96,2.15,2.15,2.15c1.18,0,2.15-0.96,2.15-2.15C458.25,299.28,457.53,298.42,456.57,298.21
	z"/>
<path class="st0" d="M207.51,298.31v-36.85c0-0.26-0.21-0.47-0.47-0.47c-0.26,0-0.47,0.21-0.47,0.47v36.85
	c-0.96,0.21-1.68,1.07-1.68,2.09c0,1.18,0.96,2.15,2.15,2.15c1.18,0,2.15-0.96,2.15-2.15C209.2,299.38,208.48,298.52,207.51,298.31z
	"/>
<path class="st0" d="M98.09,298.31v-36.85c0-0.26-0.21-0.47-0.47-0.47s-0.47,0.21-0.47,0.47v36.85c-0.96,0.21-1.68,1.07-1.68,2.09
	c0,1.18,0.96,2.15,2.15,2.15c1.18,0,2.15-0.96,2.15-2.15C99.77,299.38,99.05,298.52,98.09,298.31z"/>
<g>
	<path class="st1" d="M445.87,181.99H149.98c-1.34,0-2.42-1.08-2.42-2.42v-23.24c0-1.34,1.08-2.42,2.42-2.42h295.89
		c1.34,0,2.42,1.08,2.42,2.42v23.24C448.29,180.91,447.21,181.99,445.87,181.99z"/>
	<path class="st2" d="M447.71,182.59H148.14c-0.65,0-1.18-0.53-1.18-1.18V154.5c0-0.65,0.53-1.18,1.18-1.18h299.57
		c0.65,0,1.18,0.53,1.18,1.18v26.92C448.89,182.06,448.36,182.59,447.71,182.59z M148.16,181.39h299.53v-26.88H148.16V181.39z"/>
</g>
<g>
	<text transform="matrix(1 0 0 1 268.0254 172.0889)" class="st3 st4 st5">Dashboard</text>
</g>
<path class="st0" d="M405.01,151.87v-39.7c0-0.26-0.21-0.47-0.47-0.47s-0.47,0.21-0.47,0.47v39.7c-0.96,0.21-1.68,1.07-1.68,2.09
	c0,1.18,0.96,2.15,2.15,2.15c1.18,0,2.15-0.96,2.15-2.15C406.69,152.94,405.97,152.08,405.01,151.87z"/>
<path class="st6" d="M498.89,97.69h-36.85c-0.26,0-0.47,0.21-0.47,0.47s0.21,0.47,0.47,0.47h36.85c0.21,0.96,1.07,1.68,2.09,1.68
	c1.18,0,2.15-0.96,2.15-2.15c0-1.18-0.96-2.15-2.15-2.15C499.96,96.01,499.11,96.73,498.89,97.69z"/>
<g>
	<g>
		<path class="st1" d="M474.92,112.64H374.33c-1.34,0-2.42-1.08-2.42-2.42V86.99c0-1.34,1.08-2.42,2.42-2.42h100.59
			c1.34,0,2.42,1.08,2.42,2.42v23.24C477.33,111.56,476.25,112.64,474.92,112.64z"/>
		<path class="st2" d="M476.75,113.24H372.49c-0.65,0-1.18-0.53-1.18-1.18V85.15c0-0.65,0.53-1.18,1.18-1.18h104.27
			c0.65,0,1.18,0.53,1.18,1.18v26.92C477.93,112.71,477.4,113.24,476.75,113.24z M372.51,112.04h104.23V85.17H372.51V112.04z"/>
	</g>
	<text transform="matrix(1 0 0 1 400.8037 102.7407)" class="st3 st4 st5">Register</text>
</g>
<path class="st0" d="M405.01,82.13V45.29c0-0.26-0.21-0.47-0.47-0.47s-0.47,0.21-0.47,0.47v36.85c-0.96,0.21-1.68,1.07-1.68,2.09
	c0,1.18,0.96,2.15,2.15,2.15c1.18,0,2.15-0.96,2.15-2.15C406.69,83.2,405.97,82.35,405.01,82.13z"/>
<path class="st0" d="M190.71,151.87v-41.9c0-0.26-0.21-0.47-0.47-0.47c-0.26,0-0.47,0.21-0.47,0.47v41.9
	c-0.96,0.21-1.68,1.07-1.68,2.09c0,1.18,0.96,2.15,2.15,2.15c1.18,0,2.15-0.96,2.15-2.15C192.39,152.94,191.67,152.08,190.71,151.87
	z"/>
<g>
	<g>
		<path class="st1" d="M223.75,112.64H123.16c-1.34,0-2.42-1.08-2.42-2.42V86.99c0-1.34,1.08-2.42,2.42-2.42h100.59
			c1.34,0,2.42,1.08,2.42,2.42v23.24C226.16,111.56,225.08,112.64,223.75,112.64z"/>
		<path class="st2" d="M225.59,113.24H121.32c-0.65,0-1.18-0.53-1.18-1.18V85.15c0-0.65,0.53-1.18,1.18-1.18h104.27
			c0.65,0,1.18,0.53,1.18,1.18v26.92C226.76,112.71,226.23,113.24,225.59,113.24z M121.34,112.04h104.23V85.17H121.34V112.04z"/>
	</g>
	<text transform="matrix(1 0 0 1 158.5283 102.7397)" class="st3 st4 st5">Login</text>
</g>
<path class="st0" d="M190.71,82.14V45.29c0-0.26-0.21-0.47-0.47-0.47c-0.26,0-0.47,0.21-0.47,0.47v36.85
	c-0.96,0.21-1.68,1.07-1.68,2.09c0,1.18,0.96,2.15,2.15,2.15c1.18,0,2.15-0.96,2.15-2.15C192.39,83.2,191.67,82.35,190.71,82.14z"/>
<g>
	<path class="st1" d="M445.87,46.4H149.98c-1.34,0-2.42-1.08-2.42-2.42V20.74c0-1.34,1.08-2.42,2.42-2.42h295.89
		c1.34,0,2.42,1.08,2.42,2.42v23.24C448.29,45.32,447.21,46.4,445.87,46.4z"/>
	<path class="st2" d="M447.71,47H148.14c-0.65,0-1.18-0.53-1.18-1.18V18.9c0-0.65,0.53-1.18,1.18-1.18h299.57
		c0.65,0,1.18,0.53,1.18,1.18v26.92C448.89,46.47,448.36,47,447.71,47z M148.16,45.8h299.53V18.92H148.16V45.8z"/>
</g>
<text transform="matrix(1 0 0 1 266.4941 37.6665)" class="st3 st4 st5">Onboarding</text>
<path class="st0" d="M615.86,295.75c-0.26,0-0.47,0.21-0.47,0.47v1.83v35.02v1.83c0,0.26,0.21,0.47,0.47,0.47
	c0.26,0,0.47-0.21,0.47-0.47v-1.83v-35.02v-1.83C616.33,295.96,616.12,295.75,615.86,295.75z"/>
<g>
	<g>
		<path class="st1" d="M505.7,393.04H405.11c-1.34,0-2.42-1.08-2.42-2.42v-23.24c0-1.34,1.08-2.42,2.42-2.42H505.7
			c1.34,0,2.42,1.08,2.42,2.42v23.24C508.12,391.95,507.03,393.04,505.7,393.04z"/>
		<path class="st2" d="M507.54,393.63H403.27c-0.65,0-1.18-0.53-1.18-1.18v-26.92c0-0.65,0.53-1.18,1.18-1.18h104.27
			c0.65,0,1.18,0.53,1.18,1.18v26.92C508.72,393.11,508.19,393.63,507.54,393.63z M403.29,392.44h104.23v-26.88H403.29V392.44z"/>
	</g>
	<text transform="matrix(1 0 0 1 430.8877 383.1367)" class="st3 st4 st5">Try Again</text>
</g>
<path class="st0" d="M510.22,379.13l169.69-0.76c0.26,0,0.47-0.21,0.47-0.47c0-0.26-0.21-0.47-0.47-0.47l-169.69,0.76
	c-0.21-0.96-1.07-1.68-2.09-1.68c-1.18,0-2.15,0.96-2.15,2.15c0,1.18,0.96,2.15,2.15,2.15
	C509.15,380.81,510.01,380.09,510.22,379.13z"/>
<line class="st7" x1="97.62" y1="261.38" x2="455.99" y2="261.38"/>
<path class="st0" d="M296.48,203.64l0.09-21.58c0-0.26-0.21-0.47-0.47-0.47c-0.26,0-0.47,0.21-0.47,0.47l-0.09,21.58
	c-0.96,0.21-1.68,1.07-1.68,2.09c0,1.18,0.96,2.15,2.15,2.15c1.18,0,2.15-0.96,2.15-2.15C298.16,204.71,297.44,203.85,296.48,203.64
	z"/>
</svg>
